<svg width="24" height="24" viewBox="0 0 24 24" fill="none" xmlns="http://www.w3.org/2000/svg">
<g clip-path="url(#clip0_7_3928)">
<rect width="24" height="24" rx="2" fill="white"/>
<path d="M8.04669 9.55128L11.8458 7.30405C11.8925 7.27656 11.9453 7.26209 11.9991 7.26209C12.053 7.26209 12.1058 7.27656 12.1525 7.30405L15.9516 9.55128C15.9983 9.57901 16.0371 9.61887 16.064 9.66683C16.0909 9.71479 16.105 9.76917 16.1049 9.82449V14.3181C16.1048 14.3733 16.0906 14.4274 16.0637 14.4752C16.0368 14.523 15.9981 14.5627 15.9516 14.5905L12.1525 16.8377C12.1058 16.8652 12.053 16.8796 11.9991 16.8796C11.9453 16.8796 11.8925 16.8652 11.8458 16.8377L8.04669 14.5905C7.99997 14.5627 7.9612 14.5229 7.93429 14.4749C7.90737 14.4269 7.89325 14.3726 7.89336 14.3172V9.82449C7.89334 9.76919 7.90749 9.71484 7.9344 9.66689C7.9613 9.61895 8.00003 9.57908 8.04669 9.55128ZM21.8757 11.5987L17.3374 3.50887C17.1724 3.21601 16.8674 3 16.5374 3H7.4617C7.1317 3 6.82671 3.21601 6.66171 3.50887L2.12343 11.5808C2.04254 11.726 2 11.8904 2 12.0576C2 12.2249 2.04254 12.3892 2.12343 12.5345L6.66254 20.5586C6.82671 20.8506 7.1317 21 7.4617 21H16.5391C16.8682 21 17.1724 20.8549 17.3382 20.5628L21.8765 12.5259C21.9574 12.3855 22 12.2254 22 12.0623C22 11.8993 21.9574 11.7392 21.8765 11.5987M18.1182 15.4887C18.1167 15.5477 18.1002 15.6054 18.0704 15.6559C18.0406 15.7065 17.9985 15.7483 17.9482 15.7773L12.1658 19.1942C12.1161 19.2233 12.0598 19.2386 12.0025 19.2386C11.9452 19.2386 11.8889 19.2233 11.8391 19.1942L6.05338 15.7773C6.00295 15.7484 5.96069 15.7067 5.93074 15.6561C5.90079 15.6055 5.88419 15.5478 5.88255 15.4887V8.65307C5.88255 8.53354 5.95172 8.42339 6.05255 8.36448L11.8325 4.94754C11.9325 4.88777 12.0591 4.88777 12.1591 4.94754L17.9449 8.36533C17.9955 8.39405 18.0379 8.43575 18.068 8.48635C18.0981 8.53694 18.1148 8.59469 18.1166 8.65392L18.1182 15.4887Z" fill="#4B32C3"/>
<path d="M11.8472 7.30046C11.9414 7.24468 12.0586 7.24468 12.1528 7.30046L15.9578 9.55287C16.049 9.60688 16.105 9.70502 16.105 9.81103V14.329C16.105 14.435 16.049 14.5331 15.9578 14.5871L12.1528 16.8395C12.0586 16.8953 11.9414 16.8953 11.8472 16.8395L8.04222 14.5871C7.95099 14.5331 7.89504 14.435 7.89504 14.329V9.81103C7.89504 9.70502 7.95099 9.60688 8.04222 9.55287L11.8472 7.30046Z" fill="#7C7CEB"/>
</g>
<defs>
<clipPath id="clip0_7_3928">
<rect width="24" height="24" fill="white"/>
</clipPath>
</defs>
</svg>
