<svg width="24" height="24" viewBox="0 0 24 24" fill="none" xmlns="http://www.w3.org/2000/svg">
<g clip-path="url(#clip0_1_3764)">
<rect width="24" height="24" rx="2" fill="#4B32C3"/>
<path d="M8.04677 9.39417L11.8459 7.20083C11.8926 7.174 11.9455 7.15988 11.9993 7.15988C12.0531 7.15988 12.106 7.174 12.1526 7.20083L15.9518 9.39417C15.9985 9.42124 16.0373 9.46014 16.0642 9.50695C16.0911 9.55376 16.1052 9.60683 16.1051 9.66083V14.0467C16.105 14.1005 16.0908 14.1534 16.0639 14.2C16.037 14.2467 15.9983 14.2854 15.9518 14.3125L12.1526 16.5058C12.106 16.5327 12.0531 16.5468 11.9993 16.5468C11.9455 16.5468 11.8926 16.5327 11.8459 16.5058L8.04677 14.3125C8.00004 14.2854 7.96128 14.2465 7.93436 14.1997C7.90744 14.1529 7.89333 14.0998 7.89343 14.0458V9.66083C7.89341 9.60685 7.90756 9.55381 7.93447 9.50701C7.96138 9.46022 8.0001 9.4213 8.04677 9.39417ZM21.8759 11.3925L17.3376 3.49667C17.1726 3.21083 16.8676 3 16.5376 3H7.46177C7.13177 3 6.82677 3.21083 6.66177 3.49667L2.12343 11.375C2.04254 11.5168 2 11.6772 2 11.8404C2 12.0036 2.04254 12.1641 2.12343 12.3058L6.6626 20.1375C6.82677 20.4225 7.13177 20.5683 7.46177 20.5683H16.5393C16.8684 20.5683 17.1726 20.4267 17.3384 20.1417L21.8768 12.2975C21.9576 12.1604 22.0002 12.0042 22.0002 11.845C22.0002 11.6858 21.9576 11.5296 21.8768 11.3925M18.1184 15.1892C18.1169 15.2468 18.1004 15.3031 18.0706 15.3524C18.0408 15.4018 17.9987 15.4426 17.9484 15.4708L12.1659 18.8058C12.1162 18.8343 12.0599 18.8492 12.0026 18.8492C11.9453 18.8492 11.889 18.8343 11.8393 18.8058L6.05343 15.4708C6.003 15.4427 5.96074 15.402 5.93079 15.3526C5.90084 15.3032 5.88424 15.2469 5.8826 15.1892V8.5175C5.8826 8.40083 5.95177 8.29333 6.0526 8.23583L11.8326 4.90083C11.9326 4.8425 12.0593 4.8425 12.1593 4.90083L17.9451 8.23667C17.9957 8.26469 18.0381 8.30539 18.0682 8.35478C18.0983 8.40416 18.115 8.46053 18.1168 8.51833L18.1184 15.1892Z" fill="white"/>
</g>
<defs>
<clipPath id="clip0_1_3764">
<rect width="24" height="24" fill="white"/>
</clipPath>
</defs>
</svg>
