<svg width="24" height="24" viewBox="0 0 24 24" fill="none" xmlns="http://www.w3.org/2000/svg">
<g clip-path="url(#clip0_1_3766)">
<rect width="24" height="24" rx="2" fill="#242938"/>
<path d="M21 4.49858V19.4974C21.0071 20.8702 19.9043 21.9888 18.5366 21.9961C18.4346 21.9966 18.3326 21.9908 18.2313 21.9788C16.9627 21.7904 16.033 20.6823 16.0639 19.3954V4.60041C16.0333 3.31225 16.9652 2.20359 18.2356 2.01709C19.594 1.85751 20.8242 2.83342 20.9832 4.19691C20.9948 4.297 21.0005 4.39783 21 4.49858ZM5.46802 17.0457C4.10499 17.0457 3 18.1548 3 19.5228C3 20.8909 4.10499 22 5.46802 22C6.83105 22 7.93604 20.8909 7.93604 19.5228C7.93604 18.1548 6.83097 17.0457 5.46802 17.0457ZM12.0045 9.53756C11.9903 9.53756 11.9761 9.53756 11.9619 9.53781C10.5924 9.61314 9.5298 10.7661 9.5616 12.1425V18.7963C9.5616 20.6021 10.3533 21.6983 11.5131 21.9321C12.8513 22.2042 14.156 21.3361 14.4272 19.9929C14.4604 19.8284 14.477 19.661 14.4764 19.4931V12.0277C14.4789 10.6549 13.3721 9.54006 12.0045 9.53756Z" fill="#E37400"/>
<rect x="16" y="2" width="5" height="20" rx="2.5" fill="#FAAE16"/>
<rect x="9.56" y="9.5" width="4.91" height="12.48" rx="2.455" fill="#E47816"/>
<rect x="3" y="17" width="5" height="5" rx="2.5" fill="#E47816"/>
</g>
<defs>
<clipPath id="clip0_1_3766">
<rect width="24" height="24" fill="white"/>
</clipPath>
</defs>
</svg>
