<svg width="24" height="24" viewBox="0 0 24 24" fill="none" xmlns="http://www.w3.org/2000/svg">
<g clip-path="url(#clip0_1_3770)">
<rect width="24" height="24" rx="2" fill="#246FDB"/>
<path d="M12.0022 2C11.5078 2.00011 11.0244 2.14679 10.6133 2.4215C10.2022 2.69621 9.88178 3.08662 9.69256 3.54337C9.50335 4.00011 9.45383 4.5027 9.55027 4.98758C9.64671 5.47246 9.88477 5.91787 10.2344 6.2675L15.9564 11.9883L12.2506 15.7725L13.7051 17.3025C13.9291 17.4776 14.1258 17.6852 14.2885 17.9183L14.2985 17.9275L14.2977 17.9292C14.6285 18.4075 14.8055 18.9752 14.8053 19.5567C14.8053 19.7755 14.7801 19.9936 14.7303 20.2067L21.19 13.8342C21.2158 13.81 21.2458 13.7925 21.2717 13.7675C21.2908 13.7483 21.3033 13.7242 21.3217 13.7042C21.7659 13.2323 22.0091 12.6061 21.9997 11.9582C21.9904 11.3103 21.7293 10.6914 21.2717 10.2325L13.7701 2.7325C13.5382 2.49997 13.2627 2.31555 12.9593 2.18984C12.6559 2.06413 12.3307 1.99962 12.0022 2ZM9.19082 3.7775L2.73114 10.1742C2.26298 10.6426 2 11.2778 2 11.94C2 12.6022 2.26298 13.2374 2.73114 13.7058L9.14914 20.1642C9.10612 19.9645 9.0846 19.7609 9.08496 19.5567C9.08519 18.7984 9.38655 18.0713 9.92281 17.5352C10.4591 16.999 11.1863 16.6977 11.9447 16.6975C12.1768 16.6975 12.408 16.7258 12.6332 16.7817L8.02974 11.94L11.673 8.29583L9.93931 6.5625C9.18665 5.80917 8.94494 4.74333 9.19082 3.7775ZM11.9447 17.1142C11.2969 17.1144 10.6756 17.3718 10.2175 17.8298C9.7594 18.2878 9.50194 18.9089 9.50172 19.5567C9.50172 20.2045 9.75908 20.8259 10.2172 21.2841C10.6753 21.7423 11.2967 21.9998 11.9447 22C12.5929 22 13.2145 21.7426 13.6728 21.2844C14.1311 20.8262 14.3886 20.2047 14.3886 19.5567C14.3883 18.9088 14.1308 18.2875 13.6725 17.8295C13.2142 17.3715 12.5927 17.1142 11.9447 17.1142Z" fill="white"/>
</g>
<defs>
<clipPath id="clip0_1_3770">
<rect width="24" height="24" rx="5.5" fill="white"/>
</clipPath>
</defs>
</svg>
