<svg width="24" height="24" viewBox="0 0 24 24" fill="none" xmlns="http://www.w3.org/2000/svg">
<g clip-path="url(#clip0_1_3768)">
<rect width="24" height="24" rx="2" fill="#3C2622"/>
<path d="M22.125 0H1.875C0.8394 0 0 0.8394 0 1.875V22.125C0 23.1606 0.8394 24 1.875 24H22.125C23.1606 24 24 23.1606 24 22.125V1.875C24 0.8394 23.1606 0 22.125 0ZM12 18.75C11.409 18.75 10.8303 18.7087 10.2683 18.6291C9.7057 19.0256 6.4553 21.3088 6.1485 21.3516C6.1485 21.3516 6.0227 21.4005 5.9157 21.3375C5.8087 21.2745 5.8281 21.1093 5.8281 21.1093C5.8603 20.8895 6.6707 18.091 6.8201 17.576C4.0749 16.216 2.25 13.8074 2.25 11.0625C2.25 6.8168 6.6152 3.375 12 3.375C17.3848 3.375 21.75 6.8168 21.75 11.0625C21.75 15.3082 17.3848 18.75 12 18.75ZM8.0496 9.8672H7.1719V13.2089C7.1719 13.5052 6.9196 13.7461 6.6094 13.7461C6.2992 13.7461 6.0469 13.5052 6.0469 13.2089V9.8672H5.1692C4.8648 9.8672 4.6172 9.6201 4.6172 9.3164C4.6172 9.0127 4.8649 8.7656 5.1692 8.7656H8.0496C8.354 8.7656 8.6016 9.0127 8.6016 9.3164C8.6016 9.6201 8.3539 9.8672 8.0496 9.8672ZM19.0375 12.8238C19.0822 12.8826 19.1148 12.9498 19.1333 13.0213C19.1518 13.0928 19.156 13.1674 19.1455 13.2405C19.1354 13.3137 19.111 13.3842 19.0735 13.4479C19.036 13.5115 18.9863 13.5672 18.9272 13.6115C18.8299 13.6854 18.7111 13.7253 18.5889 13.725C18.5017 13.7254 18.4157 13.7054 18.3377 13.6666C18.2597 13.6277 18.1918 13.5712 18.1396 13.5014L16.8204 11.7535L16.6252 11.9487V13.176C16.625 13.3252 16.5657 13.4682 16.4602 13.5737C16.3547 13.6792 16.2117 13.7386 16.0625 13.7388C15.9134 13.7387 15.7704 13.6794 15.6649 13.5739C15.5594 13.4684 15.5001 13.3254 15.5 13.1763V9.3281C15.5 9.0179 15.7523 8.7656 16.0625 8.7656C16.3727 8.7656 16.625 9.0179 16.625 9.3281V10.5371L18.1944 8.9677C18.2751 8.887 18.386 8.8425 18.5064 8.8425C18.6468 8.8425 18.7878 8.9031 18.8935 9.0086C18.992 9.107 19.0508 9.2337 19.0589 9.3652C19.0671 9.4979 19.0229 9.6194 18.9348 9.7077L17.653 10.9894L19.0375 12.8238ZM10.6873 9.3215C10.5923 9.0516 10.3044 8.774 9.937 8.7658C9.5707 8.7741 9.2828 9.0516 9.188 9.3209L7.8425 12.8624C7.6717 13.3929 7.8208 13.5896 7.9758 13.6612C8.08802 13.7125 8.21 13.739 8.3334 13.7388C8.568 13.7388 8.7473 13.6436 8.8012 13.4907L9.0799 12.761L10.7951 12.7611L11.0736 13.4903C11.1277 13.6435 11.3071 13.7387 11.5417 13.7387C11.6651 13.7388 11.787 13.7124 11.8993 13.6612C12.0544 13.5899 12.2034 13.3931 12.0322 12.8613L10.6873 9.3215ZM9.3757 11.7648L9.9375 10.1687L10.4993 11.7648H9.3757ZM15.2813 13.1484C15.2813 13.4327 15.0395 13.664 14.7422 13.664H12.9375C12.6402 13.664 12.3984 13.4326 12.3984 13.1484V9.3281C12.3984 9.0179 12.656 8.7656 12.9726 8.7656C13.2892 8.7656 13.5468 9.0179 13.5468 9.3281V12.6328H14.7421C15.0395 12.6328 15.2813 12.8642 15.2813 13.1484Z" fill="#FFCD00"/>
</g>
<defs>
<clipPath id="clip0_1_3768">
<rect width="24" height="24" fill="white"/>
</clipPath>
</defs>
</svg>
