<svg width="24" height="24" viewBox="0 0 24 24" fill="none" xmlns="http://www.w3.org/2000/svg">
<rect width="24" height="24" rx="2" fill="white"/>
<rect x="3.42999" y="3" width="10.2857" height="0.857143" rx="0.428571" fill="#5DB5B6"/>
<rect x="3.42999" y="4.71429" width="3.42857" height="0.857143" rx="0.428571" fill="#EA6464"/>
<rect x="6.00142" y="11.5714" width="3.42857" height="0.857143" rx="0.428571" fill="#F8BC45"/>
<rect x="3.42999" y="6.42857" width="6" height="0.857143" rx="0.428571" fill="#5DB5B6"/>
<rect x="10.2871" y="6.42857" width="4.28571" height="0.857143" rx="0.428571" fill="#C089C1"/>
<rect x="15.43" y="6.42857" width="1.71429" height="0.857143" rx="0.428571" fill="#5DB5B6"/>
<rect x="9.42999" y="8.14286" width="2.57143" height="0.857143" rx="0.428571" fill="#A8B2B8"/>
<rect x="9.42999" y="9.85714" width="2.57143" height="0.857143" rx="0.428571" fill="#A8B2B8"/>
<rect x="14.5728" y="3" width="6" height="0.857143" rx="0.428571" fill="#A8B2B8"/>
<rect x="17.1443" y="4.71429" width="3.42857" height="0.857143" rx="0.428571" fill="#A8B2B8"/>
<rect x="18.0014" y="6.42857" width="2.57143" height="0.857143" rx="0.428571" fill="#A8B2B8"/>
<rect x="18.8586" y="8.14286" width="1.71429" height="0.857143" rx="0.428571" fill="#A8B2B8"/>
<rect x="18.8586" y="9.85714" width="1.71429" height="0.857143" rx="0.428571" fill="#A8B2B8"/>
<rect x="18.0014" y="11.5714" width="2.57143" height="0.857143" rx="0.428571" fill="#A8B2B8"/>
<rect x="18.0014" y="15" width="2.57143" height="0.857143" rx="0.428571" fill="#A8B2B8"/>
<rect x="16.2871" y="18.4286" width="4.28571" height="0.857143" rx="0.428571" fill="#A8B2B8"/>
<rect x="15.43" y="20.1429" width="5.14286" height="0.857143" rx="0.428571" fill="#A8B2B8"/>
<rect x="14.5728" y="15" width="2.57143" height="0.857143" rx="0.428571" fill="#A8B2B8"/>
<rect x="12.8586" y="16.7143" width="7.71428" height="0.857143" rx="0.428571" fill="#A8B2B8"/>
<rect x="13.7157" y="18.4286" width="1.71429" height="0.857143" rx="0.428571" fill="#A8B2B8"/>
<rect x="9.42999" y="16.7143" width="2.57143" height="0.857143" rx="0.428571" fill="#A8B2B8"/>
<rect x="9.42999" y="18.4286" width="3.42857" height="0.857143" rx="0.428571" fill="#A8B2B8"/>
<rect x="9.42999" y="20.1429" width="5.14286" height="0.857143" rx="0.428571" fill="#A8B2B8"/>
<rect x="17.1443" y="13.2857" width="3.42857" height="0.857143" rx="0.428571" fill="#A8B2B8"/>
<rect x="3.42999" y="8.14286" width="2.57143" height="0.857143" rx="0.428571" fill="#F8BC45"/>
<rect x="6.85857" y="8.14286" width="1.71429" height="0.857143" rx="0.428571" fill="#5DB5B6"/>
<rect x="3.42999" y="11.5714" width="1.71429" height="0.857143" rx="0.428571" fill="#EA6464"/>
<rect x="12.8586" y="8.14286" width="5.14286" height="0.857143" rx="0.428571" fill="#EA6464"/>
<rect x="3.42999" y="9.85714" width="5.14286" height="0.857143" rx="0.428571" fill="#C089C1"/>
<rect x="3.42999" y="13.2857" width="4.28571" height="0.857143" rx="0.428571" fill="#5DB5B6"/>
<rect x="3.42999" y="16.7143" width="5.14286" height="0.857143" rx="0.428571" fill="#C089C1"/>
<rect x="3.42999" y="18.4286" width="2.57143" height="0.857143" rx="0.428571" fill="#5DB5B6"/>
<rect x="6.85857" y="18.4286" width="1.71429" height="0.857143" rx="0.428571" fill="#F8BC45"/>
<rect x="3.42999" y="20.1429" width="5.14286" height="0.857143" rx="0.428571" fill="#EA6464"/>
<rect x="8.57285" y="13.2857" width="3.42857" height="0.857143" rx="0.428571" fill="#EA6464"/>
<rect x="12.8586" y="13.2857" width="3.42857" height="0.857143" rx="0.428571" fill="#C089C1"/>
<rect x="3.42999" y="15" width="1.71429" height="0.857143" rx="0.428571" fill="#C089C1"/>
<rect x="6.00142" y="15" width="7.71428" height="0.857143" rx="0.428571" fill="#F8BC45"/>
<rect x="12.8586" y="9.85714" width="5.14286" height="0.857143" rx="0.428571" fill="#F8BC45"/>
<rect x="7.7157" y="4.71429" width="8.57143" height="0.857143" rx="0.428571" fill="#F8BC45"/>
<rect x="10.2871" y="11.5714" width="6.85714" height="0.857143" rx="0.428571" fill="#5DB5B6"/>
</svg>
