<svg width="24" height="24" viewBox="0 0 24 24" fill="none" xmlns="http://www.w3.org/2000/svg">
<rect width="24" height="24" rx="2" fill="white"/>
<rect x="2" y="1.5" width="12" height="1" rx="0.5" fill="#5DB5B6"/>
<rect x="2" y="3.5" width="4" height="1" rx="0.5" fill="#EA6464"/>
<rect x="5" y="11.5" width="4" height="1" rx="0.5" fill="#F8BC45"/>
<rect x="2" y="5.5" width="7" height="1" rx="0.5" fill="#5DB5B6"/>
<rect x="10" y="5.5" width="5" height="1" rx="0.5" fill="#C089C1"/>
<rect x="16" y="5.5" width="2" height="1" rx="0.5" fill="#5DB5B6"/>
<rect x="9" y="7.5" width="3" height="1" rx="0.5" fill="#A8B2B8"/>
<rect x="9" y="9.5" width="3" height="1" rx="0.5" fill="#A8B2B8"/>
<rect x="15" y="1.5" width="7" height="1" rx="0.5" fill="#A8B2B8"/>
<rect x="18" y="3.5" width="4" height="1" rx="0.5" fill="#A8B2B8"/>
<rect x="19" y="5.5" width="3" height="1" rx="0.5" fill="#A8B2B8"/>
<rect x="20" y="7.5" width="2" height="1" rx="0.5" fill="#A8B2B8"/>
<rect x="20" y="9.5" width="2" height="1" rx="0.5" fill="#A8B2B8"/>
<rect x="19" y="11.5" width="3" height="1" rx="0.5" fill="#A8B2B8"/>
<rect x="19" y="15.5" width="3" height="1" rx="0.5" fill="#A8B2B8"/>
<rect x="17" y="19.5" width="5" height="1" rx="0.5" fill="#A8B2B8"/>
<rect x="16" y="21.5" width="6" height="1" rx="0.5" fill="#A8B2B8"/>
<rect x="15" y="15.5" width="3" height="1" rx="0.5" fill="#A8B2B8"/>
<rect x="13" y="17.5" width="9" height="1" rx="0.5" fill="#A8B2B8"/>
<rect x="14" y="19.5" width="2" height="1" rx="0.5" fill="#A8B2B8"/>
<rect x="9" y="17.5" width="3" height="1" rx="0.5" fill="#A8B2B8"/>
<rect x="9" y="19.5" width="4" height="1" rx="0.5" fill="#A8B2B8"/>
<rect x="9" y="21.5" width="6" height="1" rx="0.5" fill="#A8B2B8"/>
<rect x="18" y="13.5" width="4" height="1" rx="0.5" fill="#A8B2B8"/>
<rect x="2" y="7.5" width="3" height="1" rx="0.5" fill="#F8BC45"/>
<rect x="6" y="7.5" width="2" height="1" rx="0.5" fill="#5DB5B6"/>
<rect x="2" y="11.5" width="2" height="1" rx="0.5" fill="#EA6464"/>
<rect x="13" y="7.5" width="6" height="1" rx="0.5" fill="#EA6464"/>
<rect x="2" y="9.5" width="6" height="1" rx="0.5" fill="#C089C1"/>
<rect x="2" y="13.5" width="5" height="1" rx="0.5" fill="#5DB5B6"/>
<rect x="2" y="17.5" width="6" height="1" rx="0.5" fill="#C089C1"/>
<rect x="2" y="19.5" width="3" height="1" rx="0.5" fill="#5DB5B6"/>
<rect x="6" y="19.5" width="2" height="1" rx="0.5" fill="#F8BC45"/>
<rect x="2" y="21.5" width="6" height="1" rx="0.5" fill="#EA6464"/>
<rect x="8" y="13.5" width="4" height="1" rx="0.5" fill="#EA6464"/>
<rect x="13" y="13.5" width="4" height="1" rx="0.5" fill="#C089C1"/>
<rect x="2" y="15.5" width="2" height="1" rx="0.5" fill="#C089C1"/>
<rect x="5" y="15.5" width="9" height="1" rx="0.5" fill="#F8BC45"/>
<rect x="13" y="9.5" width="6" height="1" rx="0.5" fill="#F8BC45"/>
<rect x="7" y="3.5" width="10" height="1" rx="0.5" fill="#F8BC45"/>
<rect x="10" y="11.5" width="8" height="1" rx="0.5" fill="#5DB5B6"/>
</svg>
