<svg width="24" height="24" viewBox="0 0 24 24" fill="none" xmlns="http://www.w3.org/2000/svg">
<g clip-path="url(#clip0_1_3776)">
<rect width="24" height="24" rx="2" fill="#F7B93E"/>
<path d="M9.66625 21.5242C9.66625 21.5867 9.65405 21.6485 9.63033 21.7063C9.60662 21.764 9.57186 21.8164 9.52804 21.8606C9.48423 21.9048 9.43221 21.9399 9.37496 21.9638C9.3177 21.9877 9.25634 22 9.19438 22H4.47229C4.34703 22 4.2269 21.9498 4.13833 21.8605C4.04976 21.7712 4 21.6501 4 21.5237C4 21.3974 4.04976 21.2763 4.13833 21.187C4.2269 21.0977 4.34703 21.0475 4.47229 21.0475H9.19438C9.45552 21.0475 9.66625 21.2608 9.66625 21.5242ZM9.19438 19.1417H8.24979C8.12453 19.1417 8.00441 19.1918 7.91583 19.2812C7.82726 19.3705 7.7775 19.4916 7.7775 19.6179C7.7775 19.7442 7.82726 19.8654 7.91583 19.9547C8.00441 20.044 8.12453 20.0942 8.24979 20.0942H9.19438C9.31964 20.0942 9.43976 20.044 9.52834 19.9547C9.61691 19.8654 9.66667 19.7442 9.66667 19.6179C9.66667 19.4916 9.61691 19.3705 9.52834 19.2812C9.43976 19.1918 9.31964 19.1417 9.19438 19.1417ZM4.47229 20.0942H6.3598C6.48506 20.0942 6.60519 20.044 6.69376 19.9547C6.78233 19.8654 6.83209 19.7442 6.83209 19.6179C6.83209 19.4916 6.78233 19.3705 6.69376 19.2812C6.60519 19.1918 6.48506 19.1417 6.3598 19.1417H4.47229C4.34703 19.1417 4.2269 19.1918 4.13833 19.2812C4.04976 19.3705 4 19.4916 4 19.6179C4 19.7442 4.04976 19.8654 4.13833 19.9547C4.2269 20.044 4.34703 20.0942 4.47229 20.0942ZM9.19438 17.2383H4.47229C4.34703 17.2383 4.2269 17.2885 4.13833 17.3778C4.04976 17.4671 4 17.5883 4 17.7146C4 17.8409 4.04976 17.962 4.13833 18.0513C4.2269 18.1407 4.34703 18.1908 4.47229 18.1908H9.19438C9.31964 18.1908 9.43976 18.1407 9.52834 18.0513C9.61691 17.962 9.66667 17.8409 9.66667 17.7146C9.66667 17.5883 9.61691 17.4671 9.52834 17.3778C9.43976 17.2885 9.31964 17.2383 9.19438 17.2383ZM15.8056 15.3333H7.30521C7.17995 15.3333 7.05982 15.3835 6.97125 15.4728C6.88268 15.5621 6.83292 15.6833 6.83292 15.8096C6.83292 15.9359 6.88268 16.057 6.97125 16.1463C7.05982 16.2357 7.17995 16.2858 7.30521 16.2858H15.8056C15.9309 16.2858 16.051 16.2357 16.1396 16.1463C16.2282 16.057 16.2779 15.9359 16.2779 15.8096C16.2779 15.6833 16.2282 15.5621 16.1396 15.4728C16.051 15.3835 15.9309 15.3333 15.8056 15.3333ZM4.47229 16.2858H5.41687C5.54213 16.2858 5.66226 16.2357 5.75083 16.1463C5.83941 16.057 5.88916 15.9359 5.88916 15.8096C5.88916 15.6833 5.83941 15.5621 5.75083 15.4728C5.66226 15.3835 5.54213 15.3333 5.41687 15.3333H4.47229C4.34703 15.3333 4.2269 15.3835 4.13833 15.4728C4.04976 15.5621 4 15.6833 4 15.8096C4 15.9359 4.04976 16.057 4.13833 16.1463C4.2269 16.2357 4.34703 16.2858 4.47229 16.2858ZM18.6394 13.4283H15.8056C15.6804 13.4283 15.5602 13.4785 15.4717 13.5678C15.3831 13.6571 15.3333 13.7783 15.3333 13.9046C15.3333 14.0309 15.3831 14.152 15.4717 14.2413C15.5602 14.3307 15.6804 14.3808 15.8056 14.3808H18.6394C18.7646 14.3808 18.8848 14.3307 18.9733 14.2413C19.0619 14.152 19.1117 14.0309 19.1117 13.9046C19.1117 13.7783 19.0619 13.6571 18.9733 13.5678C18.8848 13.4785 18.7646 13.4283 18.6394 13.4283ZM10.139 14.3808H13.9165C14.0417 14.3808 14.1618 14.3307 14.2504 14.2413C14.339 14.152 14.3888 14.0309 14.3888 13.9046C14.3888 13.7783 14.339 13.6571 14.2504 13.5678C14.1618 13.4785 14.0417 13.4283 13.9165 13.4283H10.139C10.0137 13.4283 9.89357 13.4785 9.805 13.5678C9.71643 13.6571 9.66667 13.7783 9.66667 13.9046C9.66667 14.0309 9.71643 14.152 9.805 14.2413C9.89357 14.3307 10.0137 14.3808 10.139 14.3808ZM4.47229 14.3808H8.24979C8.37505 14.3808 8.49518 14.3307 8.58375 14.2413C8.67233 14.152 8.72208 14.0309 8.72208 13.9046C8.72208 13.7783 8.67233 13.6571 8.58375 13.5678C8.49518 13.4785 8.37505 13.4283 8.24979 13.4283H4.47229C4.34703 13.4283 4.2269 13.4785 4.13833 13.5678C4.04976 13.6571 4 13.7783 4 13.9046C4 14.0309 4.04976 14.152 4.13833 14.2413C4.2269 14.3307 4.34703 14.3808 4.47229 14.3808ZM19.5823 11.525H12.0289C11.9038 11.525 11.7838 11.5751 11.6953 11.6644C11.6068 11.7536 11.5571 11.8746 11.5571 12.0008C11.5571 12.127 11.6068 12.2481 11.6953 12.3373C11.7838 12.4265 11.9038 12.4767 12.0289 12.4767H19.584C19.7091 12.4767 19.8291 12.4265 19.9176 12.3373C20.0061 12.2481 20.0558 12.127 20.0558 12.0008C20.0558 11.8746 20.0061 11.7536 19.9176 11.6644C19.8291 11.5751 19.7091 11.525 19.584 11.525H19.5823ZM10.6108 12C10.6108 11.8738 10.5611 11.7528 10.4726 11.6635C10.3841 11.5743 10.2641 11.5242 10.139 11.5242H7.30521C7.18006 11.5242 7.06004 11.5743 6.97154 11.6635C6.88305 11.7528 6.83333 11.8738 6.83333 12C6.83333 12.1262 6.88305 12.2472 6.97154 12.3365C7.06004 12.4257 7.18006 12.4758 7.30521 12.4758H10.139C10.2641 12.4758 10.3841 12.4257 10.4726 12.3365C10.5611 12.2472 10.6108 12.1262 10.6108 12ZM4.47229 12.4758H5.41687C5.54202 12.4758 5.66205 12.4257 5.75054 12.3365C5.83904 12.2472 5.88875 12.1262 5.88875 12C5.88875 11.8738 5.83904 11.7528 5.75054 11.6635C5.66205 11.5743 5.54202 11.5242 5.41687 11.5242H4.47229C4.34714 11.5242 4.22712 11.5743 4.13862 11.6635C4.05013 11.7528 4.00041 11.8738 4.00041 12C4.00041 12.1262 4.05013 12.2472 4.13862 12.3365C4.22712 12.4257 4.34714 12.4758 4.47229 12.4758ZM20.5277 9.61917H15.8056C15.6804 9.61917 15.5602 9.66934 15.4717 9.75866C15.3831 9.84797 15.3333 9.96911 15.3333 10.0954C15.3333 10.2217 15.3831 10.3429 15.4717 10.4322C15.5602 10.5215 15.6804 10.5717 15.8056 10.5717H20.5277C20.653 10.5717 20.7731 10.5215 20.8617 10.4322C20.9502 10.3429 21 10.2217 21 10.0954C21 9.96911 20.9502 9.84797 20.8617 9.75866C20.7731 9.66934 20.653 9.61917 20.5277 9.61917ZM4.47229 10.5717H9.19438C9.31964 10.5717 9.43976 10.5215 9.52834 10.4322C9.61691 10.3429 9.66667 10.2217 9.66667 10.0954C9.66667 9.96911 9.61691 9.84797 9.52834 9.75866C9.43976 9.66934 9.31964 9.61917 9.19438 9.61917H4.47229C4.34703 9.61917 4.2269 9.66934 4.13833 9.75866C4.04976 9.84797 4 9.96911 4 10.0954C4 10.2217 4.04976 10.3429 4.13833 10.4322C4.2269 10.5215 4.34703 10.5717 4.47229 10.5717ZM15.3337 8.19083C15.3337 8.45333 15.5445 8.66667 15.8056 8.66667H20.5277C20.653 8.66667 20.7731 8.61649 20.8617 8.52718C20.9502 8.43786 21 8.31673 21 8.19042C21 8.06411 20.9502 7.94297 20.8617 7.85366C20.7731 7.76434 20.653 7.71417 20.5277 7.71417H15.8056C15.7436 7.71417 15.6822 7.7265 15.6249 7.75047C15.5675 7.77443 15.5155 7.80956 15.4717 7.85383C15.4278 7.8981 15.3931 7.95066 15.3694 8.00848C15.3458 8.06631 15.3336 8.12828 15.3337 8.19083ZM8.24979 7.71417C8.12453 7.71417 8.00441 7.76434 7.91583 7.85366C7.82726 7.94297 7.7775 8.06411 7.7775 8.19042C7.7775 8.31673 7.82726 8.43786 7.91583 8.52718C8.00441 8.61649 8.12453 8.66667 8.24979 8.66667H9.19438C9.31964 8.66667 9.43976 8.61649 9.52834 8.52718C9.61691 8.43786 9.66667 8.31673 9.66667 8.19042C9.66667 8.06411 9.61691 7.94297 9.52834 7.85366C9.43976 7.76434 9.31964 7.71417 9.19438 7.71417H8.24979ZM4.47229 8.66667H6.3598C6.48506 8.66667 6.60519 8.61649 6.69376 8.52718C6.78233 8.43786 6.83209 8.31673 6.83209 8.19042C6.83209 8.06411 6.78233 7.94297 6.69376 7.85366C6.60519 7.76434 6.48506 7.71417 6.3598 7.71417H4.47229C4.34703 7.71417 4.2269 7.76434 4.13833 7.85366C4.04976 7.94297 4 8.06411 4 8.19042C4 8.31673 4.04976 8.43786 4.13833 8.52718C4.2269 8.61649 4.34703 8.66667 4.47229 8.66667ZM18.1667 6.28583C18.1667 6.54833 18.3782 6.76167 18.6394 6.76167H19.5831C19.7084 6.76167 19.8285 6.71149 19.9171 6.62218C20.0057 6.53286 20.0554 6.41173 20.0554 6.28542C20.0554 6.15911 20.0057 6.03797 19.9171 5.94866C19.8285 5.85934 19.7084 5.80917 19.5831 5.80917H18.6402C18.5781 5.80906 18.5166 5.82131 18.4592 5.84523C18.4018 5.86914 18.3496 5.90425 18.3057 5.94853C18.2618 5.99282 18.227 6.04541 18.2033 6.10329C18.1795 6.16117 18.1666 6.22321 18.1667 6.28583ZM17.2221 6.28583C17.2222 6.22328 17.2101 6.16131 17.1864 6.10348C17.1627 6.04566 17.128 5.9931 17.0842 5.94883C17.0403 5.90456 16.9883 5.86943 16.931 5.84547C16.8737 5.8215 16.8122 5.80917 16.7502 5.80917H12.9711C12.8458 5.80917 12.7257 5.85934 12.6371 5.94866C12.5485 6.03797 12.4988 6.15911 12.4988 6.28542C12.4988 6.41173 12.5485 6.53286 12.6371 6.62218C12.7257 6.71149 12.8458 6.76167 12.9711 6.76167H16.7494C16.8745 6.76167 16.9946 6.71153 17.083 6.6223C17.1715 6.53306 17.2213 6.41203 17.2213 6.28583H17.2221ZM4.47229 6.76167H11.0835C11.2088 6.76167 11.3289 6.71149 11.4175 6.62218C11.5061 6.53286 11.5558 6.41173 11.5558 6.28542C11.5558 6.15911 11.5061 6.03797 11.4175 5.94866C11.3289 5.85934 11.2088 5.80917 11.0835 5.80917H4.47229C4.34703 5.80917 4.2269 5.85934 4.13833 5.94866C4.04976 6.03797 4 6.15911 4 6.28542C4 6.41173 4.04976 6.53286 4.13833 6.62218C4.2269 6.71149 4.34703 6.76167 4.47229 6.76167ZM8.7225 4.38083C8.7225 4.64417 8.93323 4.8575 9.19438 4.8575H18.6394C18.7646 4.8575 18.8848 4.80732 18.9733 4.71801C19.0619 4.6287 19.1117 4.50756 19.1117 4.38125C19.1117 4.25494 19.0619 4.1338 18.9733 4.04449C18.8848 3.95518 18.7646 3.905 18.6394 3.905H9.19438C9.06923 3.905 8.9492 3.95513 8.86071 4.04437C8.77221 4.1336 8.7225 4.25463 8.7225 4.38083ZM4.47229 4.8575H7.30521C7.43047 4.8575 7.5506 4.80732 7.63917 4.71801C7.72774 4.6287 7.7775 4.50756 7.7775 4.38125C7.7775 4.25494 7.72774 4.1338 7.63917 4.04449C7.5506 3.95518 7.43047 3.905 7.30521 3.905H4.47229C4.34703 3.905 4.2269 3.95518 4.13833 4.04449C4.04976 4.1338 4 4.25494 4 4.38125C4 4.50756 4.04976 4.6287 4.13833 4.71801C4.2269 4.80732 4.34703 4.8575 4.47229 4.8575ZM4.47229 2.9525H15.8056C15.9309 2.9525 16.051 2.90232 16.1396 2.81301C16.2282 2.7237 16.2779 2.60256 16.2779 2.47625C16.2779 2.34994 16.2282 2.2288 16.1396 2.13949C16.051 2.05018 15.9309 2 15.8056 2H4.47229C4.34703 2 4.2269 2.05018 4.13833 2.13949C4.04976 2.2288 4 2.34994 4 2.47625C4 2.60256 4.04976 2.7237 4.13833 2.81301C4.2269 2.90232 4.34703 2.9525 4.47229 2.9525Z" fill="white"/>
</g>
<defs>
<clipPath id="clip0_1_3776">
<rect width="24" height="24" fill="white"/>
</clipPath>
</defs>
</svg>
