<svg width="24" height="24" viewBox="0 0 24 24" fill="none" xmlns="http://www.w3.org/2000/svg">
<g clip-path="url(#clip0_7_3915)">
<rect width="24" height="24" rx="5.5" fill="white"/>
<path d="M6.7815 14.3737C6.78051 14.8749 6.58114 15.3553 6.22698 15.7099C5.87281 16.0645 5.39266 16.2644 4.8915 16.266C4.39008 16.2648 3.90955 16.065 3.55506 15.7104C3.20057 15.3558 3.00099 14.8752 3 14.3737C3.00139 13.8727 3.20116 13.3925 3.55563 13.0383C3.9101 12.6841 4.39041 12.4847 4.8915 12.4838H6.7815V14.3737ZM7.73475 14.3737C7.73614 13.8728 7.93581 13.3928 8.29011 13.0386C8.64442 12.6844 9.12454 12.4849 9.6255 12.4838C10.1265 12.4849 10.6066 12.6844 10.9609 13.0386C11.3152 13.3928 11.5149 13.8728 11.5162 14.3737V19.1085C11.5151 19.6097 11.3155 20.09 10.9612 20.4444C10.6069 20.7989 10.1267 20.9986 9.6255 21C9.12434 20.9986 8.64411 20.7989 8.2898 20.4444C7.9355 20.09 7.73594 19.6097 7.73475 19.1085V14.3737ZM9.6255 6.7815C9.1246 6.78012 8.6446 6.58057 8.29033 6.22645C7.93607 5.87232 7.73633 5.3924 7.73475 4.8915C7.73594 4.39034 7.9355 3.91003 8.2898 3.55558C8.64411 3.20114 9.12434 3.00139 9.6255 3C10.1267 3.00139 10.6069 3.20114 10.9612 3.55558C11.3155 3.91003 11.5151 4.39034 11.5162 4.8915V6.7815H9.6255ZM9.6255 7.73475C10.1265 7.73614 10.6066 7.93578 10.9609 8.29007C11.3152 8.64435 11.5149 9.12447 11.5162 9.6255C11.5149 10.1265 11.3152 10.6066 10.9609 10.9609C10.6066 11.3152 10.1265 11.5149 9.6255 11.5162H4.8915C4.39034 11.5151 3.91003 11.3155 3.55558 10.9612C3.20114 10.6069 3.00139 10.1267 3 9.6255C3.00139 9.12434 3.20114 8.64411 3.55558 8.2898C3.91003 7.9355 4.39034 7.73594 4.8915 7.73475H9.6255ZM17.217 9.6255C17.2184 9.12434 17.4181 8.64411 17.7726 8.2898C18.127 7.9355 18.6073 7.73594 19.1085 7.73475C19.6097 7.73594 20.09 7.9355 20.4444 8.2898C20.7989 8.64411 20.9986 9.12434 21 9.6255C20.9986 10.1267 20.7989 10.6069 20.4444 10.9612C20.09 11.3155 19.6097 11.5151 19.1085 11.5162H17.217V9.6255ZM16.266 9.6255C16.2646 10.1268 16.0648 10.6071 15.7102 10.9615C15.3555 11.3158 14.875 11.5153 14.3737 11.5162C13.8728 11.5149 13.3928 11.3152 13.0386 10.9609C12.6844 10.6066 12.4849 10.1265 12.4838 9.6255V4.8915C12.4847 4.39041 12.6841 3.9101 13.0383 3.55563C13.3925 3.20116 13.8727 3.00139 14.3737 3C14.8752 3.00099 15.3558 3.20057 15.7104 3.55506C16.065 3.90955 16.2648 4.39008 16.266 4.8915V9.6255ZM14.3737 17.217C14.8752 17.218 15.3558 17.4176 15.7104 17.7721C16.065 18.1265 16.2648 18.6071 16.266 19.1085C16.2648 19.6099 16.065 20.0905 15.7104 20.4449C15.3558 20.7994 14.8752 20.999 14.3737 21C13.8727 20.9986 13.3925 20.7988 13.0383 20.4444C12.6841 20.0899 12.4847 19.6096 12.4838 19.1085V17.217H14.3737ZM14.3737 16.266C13.8725 16.2646 13.3923 16.0647 13.0381 15.7101C12.6838 15.3555 12.4845 14.875 12.4838 14.3737C12.4849 13.8729 12.6844 13.3928 13.0386 13.0386C13.3928 12.6844 13.8729 12.4849 14.3737 12.4838H19.1085C19.6096 12.4847 20.0899 12.6841 20.4444 13.0383C20.7988 13.3925 20.9986 13.8727 21 14.3737C20.999 14.8752 20.7994 15.3558 20.4449 15.7104C20.0905 16.065 19.6099 16.2648 19.1085 16.266H14.3737Z" fill="white"/>
<rect x="12.486" y="3" width="3.78" height="8.514" rx="1.89" fill="#34CC71"/>
<rect x="3" y="11.514" width="3.78" height="8.514" rx="1.89" transform="rotate(-90 3 11.514)" fill="#40BEF6"/>
<path d="M3.0009 14.376C3.0009 13.3322 3.84708 12.486 4.8909 12.486H6.7809V14.376C6.7809 15.4198 5.93472 16.266 4.8909 16.266V16.266C3.84708 16.266 3.0009 15.4198 3.0009 14.376V14.376Z" fill="#E11D60"/>
<path d="M9.62401 3C10.6678 3 11.514 3.84618 11.514 4.89V6.78H9.62401C8.58019 6.78 7.73401 5.93382 7.73401 4.89V4.89C7.73401 3.84618 8.58019 3 9.62401 3V3Z" fill="#40BEF6"/>
<path d="M21 9.624C21 10.6678 20.1538 11.514 19.11 11.514H17.22V9.624C17.22 8.58018 18.0662 7.734 19.11 7.734V7.734C20.1538 7.734 21 8.58018 21 9.624V9.624Z" fill="#34CC71"/>
<rect x="7.73399" y="12.486" width="3.78" height="8.514" rx="1.89" fill="#E11D60"/>
<path opacity="0.8" d="M14.376 21C13.3322 21 12.486 20.1538 12.486 19.11V17.22H14.376C15.4198 17.22 16.266 18.0662 16.266 19.11V19.11C16.266 20.1538 15.4198 21 14.376 21V21Z" fill="#F7BB0A"/>
<rect x="12.486" y="16.266" width="3.78" height="8.514" rx="1.89" transform="rotate(-90 12.486 16.266)" fill="#F7BB0A"/>
</g>
<defs>
<clipPath id="clip0_7_3915">
<rect width="24" height="24" fill="white"/>
</clipPath>
</defs>
</svg>
