<svg width="24" height="24" viewBox="0 0 24 24" fill="none" xmlns="http://www.w3.org/2000/svg">
<g clip-path="url(#clip0_1_3772)">
<rect width="24" height="24" rx="2" fill="#4A154B"/>
<path d="M6.20167 14.6375C6.20057 15.1943 5.97905 15.7281 5.58553 16.1221C5.19201 16.5161 4.65851 16.7382 4.10167 16.74C3.54453 16.7387 3.01061 16.5167 2.61673 16.1227C2.22285 15.7286 2.0011 15.1946 2 14.6375C2.00154 14.0807 2.22351 13.5472 2.61737 13.1537C3.01122 12.7601 3.5449 12.5386 4.10167 12.5375H6.20167V14.6375ZM7.26083 14.6375C7.26237 14.0809 7.48423 13.5475 7.8779 13.154C8.27158 12.7605 8.80504 12.5388 9.36167 12.5375C9.91829 12.5388 10.4518 12.7605 10.8454 13.154C11.2391 13.5475 11.461 14.0809 11.4625 14.6375V19.8983C11.4612 20.4552 11.2394 20.9889 10.8458 21.3827C10.4521 21.7765 9.91851 21.9985 9.36167 22C8.80482 21.9985 8.27123 21.7765 7.87756 21.3827C7.48389 20.9889 7.26215 20.4552 7.26083 19.8983V14.6375ZM9.36167 6.20167C8.80511 6.20013 8.27177 5.97841 7.87815 5.58494C7.48452 5.19147 7.26259 4.65822 7.26083 4.10167C7.26215 3.54482 7.48389 3.01115 7.87756 2.61732C8.27123 2.22349 8.80482 2.00154 9.36167 2C9.91851 2.00154 10.4521 2.22349 10.8458 2.61732C11.2394 3.01115 11.4612 3.54482 11.4625 4.10167V6.20167H9.36167ZM9.36167 7.26083C9.91837 7.26237 10.4518 7.4842 10.8455 7.87785C11.2391 8.2715 11.461 8.80496 11.4625 9.36167C11.461 9.91837 11.2391 10.4518 10.8455 10.8455C10.4518 11.2391 9.91837 11.461 9.36167 11.4625H4.10167C3.54482 11.4612 3.01115 11.2394 2.61732 10.8458C2.22349 10.4521 2.00154 9.91851 2 9.36167C2.00154 8.80482 2.22349 8.27123 2.61732 7.87756C3.01115 7.48389 3.54482 7.26215 4.10167 7.26083H9.36167ZM17.7967 9.36167C17.7982 8.80482 18.0202 8.27123 18.414 7.87756C18.8078 7.48389 19.3415 7.26215 19.8983 7.26083C20.4552 7.26215 20.9889 7.48389 21.3827 7.87756C21.7765 8.27123 21.9985 8.80482 22 9.36167C21.9985 9.91851 21.7765 10.4521 21.3827 10.8458C20.9889 11.2394 20.4552 11.4612 19.8983 11.4625H17.7967V9.36167ZM16.74 9.36167C16.7385 9.91866 16.5164 10.4524 16.1224 10.8461C15.7284 11.2398 15.1945 11.4614 14.6375 11.4625C14.0809 11.461 13.5475 11.2391 13.154 10.8454C12.7605 10.4518 12.5388 9.91829 12.5375 9.36167V4.10167C12.5386 3.5449 12.7601 3.01122 13.1537 2.61737C13.5472 2.22351 14.0807 2.00154 14.6375 2C15.1946 2.0011 15.7286 2.22285 16.1227 2.61673C16.5167 3.01061 16.7387 3.54453 16.74 4.10167V9.36167ZM14.6375 17.7967C15.1946 17.7978 15.7286 18.0195 16.1227 18.4134C16.5167 18.8073 16.7387 19.3412 16.74 19.8983C16.7387 20.4555 16.5167 20.9894 16.1227 21.3833C15.7286 21.7771 15.1946 21.9989 14.6375 22C14.0807 21.9985 13.5472 21.7765 13.1537 21.3826C12.7601 20.9888 12.5386 20.4551 12.5375 19.8983V17.7967H14.6375ZM14.6375 16.74C14.0806 16.7385 13.547 16.5164 13.1534 16.1223C12.7598 15.7283 12.5384 15.1944 12.5375 14.6375C12.5388 14.081 12.7605 13.5476 13.154 13.154C13.5476 12.7605 14.081 12.5388 14.6375 12.5375H19.8983C20.4551 12.5386 20.9888 12.7601 21.3826 13.1537C21.7765 13.5472 21.9985 14.0807 22 14.6375C21.9989 15.1946 21.7771 15.7286 21.3833 16.1227C20.9894 16.5167 20.4555 16.7387 19.8983 16.74H14.6375Z" fill="white"/>
</g>
<defs>
<clipPath id="clip0_1_3772">
<rect width="24" height="24" fill="white"/>
</clipPath>
</defs>
</svg>
