<svg width="24" height="24" viewBox="0 0 24 24" fill="none" xmlns="http://www.w3.org/2000/svg">
<g clip-path="url(#clip0_1_3)">
<rect width="24" height="24" rx="2" fill="#FF4785"/>
<path d="M15.9132 2.20217L15.8135 4.46049C15.8123 4.48906 15.8193 4.51737 15.8336 4.54211C15.8479 4.56684 15.8689 4.58696 15.8942 4.6001C15.9195 4.61323 15.9481 4.61884 15.9765 4.61625C16.0048 4.61366 16.0319 4.60299 16.0544 4.58549L16.9351 3.91883L17.6829 4.50216C17.7048 4.51692 17.7303 4.52559 17.7566 4.52727C17.783 4.52896 17.8094 4.5236 17.833 4.51174C17.8567 4.49988 17.8767 4.48195 17.8912 4.45978C17.9057 4.4376 17.9141 4.41197 17.9155 4.38549L17.8324 2.0855L18.9374 2.00217C19.0737 1.99315 19.2105 2.01233 19.3391 2.05853C19.4677 2.10473 19.5855 2.17696 19.6852 2.27073C19.7848 2.3645 19.8642 2.47782 19.9183 2.60364C19.9725 2.72947 20.0003 2.86512 20 3.00217V20.9988C20.0002 21.1344 19.9728 21.2686 19.9196 21.3933C19.8664 21.518 19.7885 21.6306 19.6906 21.7241C19.5927 21.8177 19.4768 21.8903 19.35 21.9375C19.2233 21.9847 19.0882 22.0055 18.9532 21.9987L5.58034 21.3988C5.32884 21.3884 5.09056 21.2829 4.91334 21.1036C4.73612 20.9243 4.63308 20.6844 4.6249 20.4321L4.00179 3.93466C3.99393 3.80329 4.012 3.67165 4.05496 3.5473C4.09792 3.42295 4.16493 3.30832 4.25215 3.21C4.33937 3.11168 4.44508 3.03159 4.56322 2.97434C4.68137 2.91708 4.80961 2.88377 4.94062 2.87633L15.9049 2.18467L15.9132 2.20217ZM13.3626 9.74964C13.3626 10.1413 15.988 9.94963 16.3452 9.68297C16.3452 7.01631 14.9162 5.60799 12.3083 5.60799C9.69122 5.60799 8.23813 7.04131 8.23813 9.18297C8.23813 12.8913 13.2222 12.958 13.2222 14.9821C13.2222 15.5654 12.9563 15.8988 12.3498 15.8988C11.5523 15.8988 11.2282 15.4904 11.2698 14.0988C11.2698 13.7988 8.23813 13.6988 8.13843 14.0988C7.91411 17.4571 9.99115 18.4321 12.3748 18.4321C14.6927 18.4321 16.5031 17.1904 16.5031 14.9488C16.5031 10.9738 11.4359 11.0821 11.4359 9.1163C11.4359 8.30797 12.0341 8.19964 12.3748 8.19964C12.7486 8.19964 13.4133 8.25798 13.3634 9.75797L13.3626 9.74964Z" fill="white"/>
</g>
<defs>
<clipPath id="clip0_1_3">
<rect width="24" height="24" fill="white"/>
</clipPath>
</defs>
</svg>
