<svg width="24" height="24" viewBox="0 0 24 24" fill="none" xmlns="http://www.w3.org/2000/svg">
<path d="M16.1469 0.242602L16.0285 2.95259C16.0271 2.98687 16.0354 3.02085 16.0523 3.05053C16.0693 3.08021 16.0943 3.10435 16.1244 3.12012C16.1545 3.13588 16.1883 3.1426 16.222 3.1395C16.2558 3.13639 16.2879 3.12359 16.3147 3.10259L17.3604 2.30259L18.2484 3.00259C18.2745 3.02031 18.3047 3.03071 18.336 3.03273C18.3673 3.03475 18.3986 3.02832 18.4267 3.01409C18.4548 2.99986 18.4786 2.97834 18.4958 2.95173C18.513 2.92512 18.523 2.89436 18.5246 2.86259L18.426 0.102603L19.7381 0.00260351C19.9 -0.00822381 20.0624 0.0147963 20.2152 0.0702348C20.3679 0.125673 20.5078 0.212347 20.6262 0.324874C20.7445 0.437402 20.8387 0.573381 20.903 0.724371C20.9673 0.875362 21.0004 1.03814 21 1.2026V22.7985C21.0002 22.9613 20.9677 23.1224 20.9046 23.272C20.8414 23.4217 20.7489 23.5567 20.6326 23.669C20.5163 23.7812 20.3787 23.8683 20.2282 23.925C20.0776 23.9816 19.9173 24.0066 19.7569 23.9985L3.87666 23.2785C3.578 23.266 3.29504 23.1395 3.08459 22.9244C2.87415 22.7092 2.75179 22.4213 2.74207 22.1185L2.00213 2.32159C1.99279 2.16395 2.01424 2.00599 2.06526 1.85676C2.11628 1.70754 2.19586 1.56999 2.29943 1.452C2.403 1.33402 2.52854 1.23791 2.66883 1.1692C2.80912 1.10049 2.96142 1.06053 3.11698 1.0516L16.1371 0.221603L16.1469 0.242602ZM13.1181 9.29956C13.1181 9.76956 16.2357 9.53956 16.66 9.21956C16.66 6.01958 14.963 4.32958 11.8661 4.32958C8.75833 4.32958 7.03278 6.04958 7.03278 8.61957C7.03278 13.0695 12.9514 13.1495 12.9514 15.5785C12.9514 16.2785 12.6356 16.6785 11.9154 16.6785C10.9683 16.6785 10.5835 16.1885 10.6329 14.5185C10.6329 14.1585 7.03278 14.0385 6.91438 14.5185C6.648 18.5485 9.11449 19.7185 11.945 19.7185C14.6976 19.7185 16.8474 18.2285 16.8474 15.5385C16.8474 10.7686 10.8302 10.8986 10.8302 8.53957C10.8302 7.56957 11.5405 7.43957 11.945 7.43957C12.389 7.43957 13.1783 7.50957 13.1191 9.30956L13.1181 9.29956Z" fill="#F74481"/>
</svg>
