<svg width="24" height="24" viewBox="0 0 24 24" fill="none" xmlns="http://www.w3.org/2000/svg">
<g clip-path="url(#clip0_1_3774)">
<rect width="24" height="24" rx="2" fill="#0B5CFF"/>
<path d="M6.19417 14.9267H2.61917C2.49676 14.927 2.37703 14.8873 2.27522 14.8126C2.17342 14.7379 2.09415 14.6315 2.0475 14.5071C2.0005 14.3831 1.98808 14.2465 2.01182 14.1147C2.03556 13.9829 2.09439 13.8618 2.18083 13.7668L4.65833 11.0431H2.88333C2.64906 11.0431 2.42438 10.9407 2.25872 10.7586C2.09307 10.5765 2 10.3295 2 10.0719H5.2975C5.54833 10.0719 5.7725 10.2368 5.86917 10.4915C5.91606 10.6156 5.92834 10.7523 5.90446 10.8841C5.88057 11.0159 5.82158 11.1369 5.735 11.2318L3.25833 13.9565H5.31167C5.79917 13.9565 6.195 14.3917 6.195 14.9276L6.19417 14.9267ZM22 11.8933C22 10.8488 21.2275 10.0005 20.2783 10.0005C19.77 10.0005 19.3133 10.2432 18.9975 10.629C18.8363 10.4311 18.639 10.2729 18.4185 10.1646C18.1979 10.0563 17.9591 10.0004 17.7175 10.0005C16.7675 10.0005 15.9958 10.8488 15.9958 11.8933V14.9267C16.2301 14.9267 16.4548 14.8244 16.6204 14.6423C16.7861 14.4601 16.8792 14.2131 16.8792 13.9556V11.8933C16.8792 11.6487 16.9675 11.4142 17.1248 11.2412C17.2821 11.0683 17.4955 10.9711 17.7179 10.9711C17.9404 10.9711 18.1537 11.0683 18.311 11.2412C18.4683 11.4142 18.5567 11.6487 18.5567 11.8933V13.9556C18.5567 14.4924 18.9517 14.9267 19.44 14.9267V11.8933C19.44 11.6488 19.5283 11.4144 19.6855 11.2415C19.8428 11.0687 20.056 10.9716 20.2783 10.9716C20.5007 10.9716 20.7139 11.0687 20.8711 11.2415C21.0283 11.4144 21.1167 11.6488 21.1167 11.8933V13.9556C21.1167 14.4924 21.5125 14.9267 22 14.9267V11.8933ZM15.5542 12.4998C15.5542 12.828 15.4954 13.1531 15.3811 13.4564C15.2668 13.7597 15.0993 14.0353 14.8882 14.2674C14.6771 14.4995 14.4264 14.6836 14.1505 14.8093C13.8747 14.9349 13.579 14.9995 13.2804 14.9995C12.9818 14.9995 12.6862 14.9349 12.4103 14.8093C12.1344 14.6836 11.8838 14.4995 11.6726 14.2674C11.4615 14.0353 11.294 13.7597 11.1797 13.4564C11.0655 13.1531 11.0067 12.828 11.0067 12.4998C11.0067 11.8368 11.2462 11.201 11.6726 10.7322C12.099 10.2634 12.6774 10 13.2804 10C13.8835 10 14.4618 10.2634 14.8882 10.7322C15.3146 11.201 15.5542 11.8368 15.5542 12.4998ZM14.6708 12.4998C14.6708 12.0942 14.5243 11.7053 14.2635 11.4185C14.0026 11.1318 13.6489 10.9707 13.28 10.9707C12.9111 10.9707 12.5574 11.1318 12.2965 11.4185C12.0357 11.7053 11.8892 12.0942 11.8892 12.4998C11.8892 12.9053 12.0357 13.2942 12.2965 13.581C12.5574 13.8678 12.9111 14.0289 13.28 14.0289C13.6489 14.0289 14.0026 13.8678 14.2635 13.581C14.5243 13.2942 14.6708 12.9053 14.6708 12.4998ZM10.6542 12.4998C10.6542 12.8281 10.5953 13.1532 10.4811 13.4566C10.3668 13.7599 10.1993 14.0355 9.98808 14.2677C9.7769 14.4999 9.5262 14.684 9.25029 14.8097C8.97437 14.9353 8.67865 15 8.38 15C8.08135 15 7.78563 14.9353 7.50971 14.8097C7.2338 14.684 6.9831 14.4999 6.77192 14.2677C6.56075 14.0355 6.39323 13.7599 6.27894 13.4566C6.16466 13.1532 6.10583 12.8281 6.10583 12.4998C6.10583 11.8368 6.34539 11.201 6.7718 10.7322C7.19821 10.2634 7.77655 10 8.37958 10C8.98262 10 9.56096 10.2634 9.98737 10.7322C10.4138 11.201 10.6533 11.8368 10.6533 12.4998H10.6542ZM9.77083 12.4998C9.77083 12.0942 9.6243 11.7053 9.36347 11.4185C9.10264 11.1318 8.74887 10.9707 8.38 10.9707C8.01113 10.9707 7.65736 11.1318 7.39653 11.4185C7.1357 11.7053 6.98917 12.0942 6.98917 12.4998C6.98917 12.9053 7.1357 13.2942 7.39653 13.581C7.65736 13.8678 8.01113 14.0289 8.38 14.0289C8.74887 14.0289 9.10264 13.8678 9.36347 13.581C9.6243 13.2942 9.77083 12.9053 9.77083 12.4998Z" fill="white"/>
</g>
<defs>
<clipPath id="clip0_1_3774">
<rect width="24" height="24" rx="5.5" fill="white"/>
</clipPath>
</defs>
</svg>
